<svg width="512" height="512" viewBox="0 0 512 512" fill="none" xmlns="http://www.w3.org/2000/svg">
<path d="M81 226.48C81 220.404 81 217.366 82.565 215.247C83.0387 214.606 83.6057 214.039 84.247 213.565C86.3659 212 89.4039 212 95.48 212H416.52C422.596 212 425.634 212 427.753 213.565C428.394 214.039 428.961 214.606 429.435 215.247C431 217.366 431 220.404 431 226.48V440.52C431 446.596 431 449.634 429.435 451.753C428.961 452.394 428.394 452.961 427.753 453.435C425.634 455 422.596 455 416.52 455H95.48C89.4039 455 86.3659 455 84.247 453.435C83.6057 452.961 83.0387 452.394 82.565 451.753C81 449.634 81 446.596 81 440.52V226.48Z" fill="#FF0000"/>
<path d="M257.262 60C152.967 60 125 145.5 125 212H169.079C169.079 162.213 186.102 105.213 257.262 105.213C317.882 105.213 344.177 154.472 344.177 212H384C384 148.491 351.777 60 257.262 60Z" fill="white"/>
<path d="M226 292V389L310 338.295L226 292Z" fill="white"/>
</svg>
