<svg width="1080" height="1080" viewBox="0 0 1080 1080" fill="none" xmlns="http://www.w3.org/2000/svg">
<path d="M24 506.3C24 483.515 24 472.122 29.8687 464.176C31.6452 461.771 33.7712 459.645 36.1764 457.869C44.122 452 55.5147 452 78.3 452H1003.7C1026.49 452 1037.88 452 1045.82 457.869C1048.23 459.645 1050.35 461.771 1052.13 464.176C1058 472.122 1058 483.515 1058 506.3V1003.7C1058 1026.49 1058 1037.88 1052.13 1045.82C1050.35 1048.23 1048.23 1050.35 1045.82 1052.13C1037.88 1058 1026.49 1058 1003.7 1058H78.3C55.5147 1058 44.122 1058 36.1764 1052.13C33.7712 1050.35 31.6452 1048.23 29.8687 1045.82C24 1037.88 24 1026.49 24 1003.7V506.3Z" fill="#DBDBDB"/>
<path d="M550.087 20C207 20 115 263 115 452H260C260 310.5 316 148.5 550.087 148.5C749.5 148.5 836 288.5 836 452H967C967 271.5 861 20 550.087 20Z" fill="#E0E0E0"/>
<path d="M456 619V925L704 758.903L456 619Z" fill="#B8B8B8"/>
</svg>
